<svg width="24" height="24" viewBox="0 0 24 24" fill="none" xmlns="http://www.w3.org/2000/svg">
<path d="M21.8595 21.1526L17.6976 16.9908C19.1227 15.3989 19.9975 13.3042 20 11C20 6.02942 15.9706 2 11 2C6.02942 2 2 6.02942 2 11C2 15.9706 6.02942 20 11 20C13.3041 19.9975 15.3989 19.1228 16.9907 17.6978L21.1525 21.8596C21.3463 22.0468 21.6534 22.0468 21.8472 21.8596C22.0458 21.6678 22.0513 21.3513 21.8595 21.1526ZM11 19C6.58173 19 3 15.4183 3 11C3 6.58173 6.58173 3 11 3C15.4162 3.00507 18.9949 6.5838 19 11C19 15.4183 15.4183 19 11 19Z" fill="#021626"/>
</svg>
